<svg id="visual" viewBox="0 0 900 600" width="900" height="600" xmlns="http://www.w3.org/2000/svg" xmlns:xlink="http://www.w3.org/1999/xlink" version="1.1"><rect x="0" y="0" width="900" height="600" fill="#04121c"></rect><defs><linearGradient id="grad1_0" x1="33.3%" y1="0%" x2="100%" y2="100%"><stop offset="20%" stop-color="#715df2" stop-opacity="1"></stop><stop offset="80%" stop-color="#715df2" stop-opacity="1"></stop></linearGradient></defs><defs><linearGradient id="grad1_1" x1="33.3%" y1="0%" x2="100%" y2="100%"><stop offset="20%" stop-color="#715df2" stop-opacity="1"></stop><stop offset="80%" stop-color="#3155ca" stop-opacity="1"></stop></linearGradient></defs><defs><linearGradient id="grad1_2" x1="33.3%" y1="0%" x2="100%" y2="100%"><stop offset="20%" stop-color="#00489f" stop-opacity="1"></stop><stop offset="80%" stop-color="#3155ca" stop-opacity="1"></stop></linearGradient></defs><defs><linearGradient id="grad1_3" x1="33.3%" y1="0%" x2="100%" y2="100%"><stop offset="20%" stop-color="#00489f" stop-opacity="1"></stop><stop offset="80%" stop-color="#003871" stop-opacity="1"></stop></linearGradient></defs><defs><linearGradient id="grad1_4" x1="33.3%" y1="0%" x2="100%" y2="100%"><stop offset="20%" stop-color="#002544" stop-opacity="1"></stop><stop offset="80%" stop-color="#003871" stop-opacity="1"></stop></linearGradient></defs><defs><linearGradient id="grad1_5" x1="33.3%" y1="0%" x2="100%" y2="100%"><stop offset="20%" stop-color="#002544" stop-opacity="1"></stop><stop offset="80%" stop-color="#04121c" stop-opacity="1"></stop></linearGradient></defs><defs><linearGradient id="grad2_0" x1="0%" y1="0%" x2="66.7%" y2="100%"><stop offset="20%" stop-color="#715df2" stop-opacity="1"></stop><stop offset="80%" stop-color="#715df2" stop-opacity="1"></stop></linearGradient></defs><defs><linearGradient id="grad2_1" x1="0%" y1="0%" x2="66.7%" y2="100%"><stop offset="20%" stop-color="#3155ca" stop-opacity="1"></stop><stop offset="80%" stop-color="#715df2" stop-opacity="1"></stop></linearGradient></defs><defs><linearGradient id="grad2_2" x1="0%" y1="0%" x2="66.7%" y2="100%"><stop offset="20%" stop-color="#3155ca" stop-opacity="1"></stop><stop offset="80%" stop-color="#00489f" stop-opacity="1"></stop></linearGradient></defs><defs><linearGradient id="grad2_3" x1="0%" y1="0%" x2="66.7%" y2="100%"><stop offset="20%" stop-color="#003871" stop-opacity="1"></stop><stop offset="80%" stop-color="#00489f" stop-opacity="1"></stop></linearGradient></defs><defs><linearGradient id="grad2_4" x1="0%" y1="0%" x2="66.7%" y2="100%"><stop offset="20%" stop-color="#003871" stop-opacity="1"></stop><stop offset="80%" stop-color="#002544" stop-opacity="1"></stop></linearGradient></defs><defs><linearGradient id="grad2_5" x1="0%" y1="0%" x2="66.7%" y2="100%"><stop offset="20%" stop-color="#04121c" stop-opacity="1"></stop><stop offset="80%" stop-color="#002544" stop-opacity="1"></stop></linearGradient></defs><g transform="translate(900, 0)"><path d="M0 351.5C-27.2 328.7 -54.4 305.9 -77.1 287.8C-99.9 269.8 -118.2 256.5 -146 252.9C-173.8 249.2 -211.1 255.2 -245.4 245.4C-279.6 235.5 -310.8 209.8 -304.4 175.8C-298.1 141.7 -254.4 99.3 -256 68.6C-257.6 37.9 -304.6 18.9 -351.5 0L0 0Z" fill="#001c30"></path><path d="M0 293C-22.7 273.9 -45.3 254.9 -64.3 239.9C-83.2 224.8 -98.5 213.8 -121.7 210.7C-144.8 207.7 -175.9 212.7 -204.5 204.5C-233 196.3 -259 174.9 -253.7 146.5C-248.4 118.1 -212 82.7 -213.3 57.2C-214.6 31.6 -253.8 15.8 -293 0L0 0Z" fill="#002f5a"></path><path d="M0 234.4C-18.1 219.1 -36.3 203.9 -51.4 191.9C-66.6 179.9 -78.8 171 -97.3 168.6C-115.9 166.2 -140.8 170.1 -163.6 163.6C-186.4 157 -207.2 139.9 -203 117.2C-198.8 94.5 -169.6 66.2 -170.6 45.7C-171.7 25.3 -203 12.6 -234.4 0L0 0Z" fill="#004088"></path><path d="M0 175.8C-13.6 164.4 -27.2 152.9 -38.6 143.9C-49.9 134.9 -59.1 128.3 -73 126.4C-86.9 124.6 -105.6 127.6 -122.7 122.7C-139.8 117.8 -155.4 104.9 -152.2 87.9C-149.1 70.9 -127.2 49.6 -128 34.3C-128.8 18.9 -152.3 9.5 -175.8 0L0 0Z" fill="#024fb5"></path><path d="M0 117.2C-9.1 109.6 -18.1 102 -25.7 95.9C-33.3 89.9 -39.4 85.5 -48.7 84.3C-57.9 83.1 -70.4 85.1 -81.8 81.8C-93.2 78.5 -103.6 69.9 -101.5 58.6C-99.4 47.2 -84.8 33.1 -85.3 22.9C-85.9 12.6 -101.5 6.3 -117.2 0L0 0Z" fill="#515adf"></path><path d="M0 58.6C-4.5 54.8 -9.1 51 -12.9 48C-16.6 45 -19.7 42.8 -24.3 42.1C-29 41.5 -35.2 42.5 -40.9 40.9C-46.6 39.3 -51.8 35 -50.7 29.3C-49.7 23.6 -42.4 16.5 -42.7 11.4C-42.9 6.3 -50.8 3.2 -58.6 0L0 0Z" fill="#715df2"></path></g><g transform="translate(0, 600)"><path d="M0 -351.5C29.5 -340.7 58.9 -329.9 82.8 -309.1C106.7 -288.2 125 -257.3 132.5 -229.5C140 -201.7 136.6 -176.9 174.7 -174.7C212.7 -172.4 292.3 -192.7 304.4 -175.8C316.6 -158.8 261.3 -104.6 257.9 -69.1C254.5 -33.6 303 -16.8 351.5 0L0 0Z" fill="#001c30"></path><path d="M0 -293C24.6 -284 49.1 -275 69 -257.6C88.9 -240.2 104.2 -214.4 110.4 -191.2C116.6 -168 113.8 -147.4 145.5 -145.5C177.3 -143.7 243.6 -160.6 253.7 -146.5C263.8 -132.3 217.7 -87.2 214.9 -57.6C212.1 -28 252.5 -14 293 0L0 0Z" fill="#002f5a"></path><path d="M0 -234.4C19.6 -227.2 39.3 -220 55.2 -206.1C71.1 -192.2 83.4 -171.6 88.3 -153C93.3 -134.4 91 -117.9 116.4 -116.4C141.8 -114.9 194.9 -128.5 203 -117.2C211.1 -105.9 174.2 -69.7 171.9 -46.1C169.7 -22.4 202 -11.2 234.4 0L0 0Z" fill="#004088"></path><path d="M0 -175.8C14.7 -170.4 29.5 -165 41.4 -154.5C53.4 -144.1 62.5 -128.7 66.2 -114.7C70 -100.8 68.3 -88.4 87.3 -87.3C106.4 -86.2 146.2 -96.4 152.2 -87.9C158.3 -79.4 130.6 -52.3 129 -34.6C127.3 -16.8 151.5 -8.4 175.8 0L0 0Z" fill="#024fb5"></path><path d="M0 -117.2C9.8 -113.6 19.6 -110 27.6 -103C35.6 -96.1 41.7 -85.8 44.2 -76.5C46.7 -67.2 45.5 -59 58.2 -58.2C70.9 -57.5 97.4 -64.2 101.5 -58.6C105.5 -52.9 87.1 -34.9 86 -23C84.8 -11.2 101 -5.6 117.2 0L0 0Z" fill="#515adf"></path><path d="M0 -58.6C4.9 -56.8 9.8 -55 13.8 -51.5C17.8 -48 20.8 -42.9 22.1 -38.2C23.3 -33.6 22.8 -29.5 29.1 -29.1C35.5 -28.7 48.7 -32.1 50.7 -29.3C52.8 -26.5 43.5 -17.4 43 -11.5C42.4 -5.6 50.5 -2.8 58.6 0L0 0Z" fill="#715df2"></path></g></svg>