<svg id="visual" viewBox="0 0 900 600" width="900" height="600" xmlns="http://www.w3.org/2000/svg" xmlns:xlink="http://www.w3.org/1999/xlink" version="1.1"><rect x="0" y="0" width="900" height="600" fill="#04121c"></rect><defs><linearGradient id="grad1_0" x1="33.3%" y1="100%" x2="100%" y2="0%"><stop offset="20%" stop-color="#715df2" stop-opacity="1"></stop><stop offset="80%" stop-color="#715df2" stop-opacity="1"></stop></linearGradient></defs><defs><linearGradient id="grad1_1" x1="33.3%" y1="100%" x2="100%" y2="0%"><stop offset="20%" stop-color="#715df2" stop-opacity="1"></stop><stop offset="80%" stop-color="#3155ca" stop-opacity="1"></stop></linearGradient></defs><defs><linearGradient id="grad1_2" x1="33.3%" y1="100%" x2="100%" y2="0%"><stop offset="20%" stop-color="#00489f" stop-opacity="1"></stop><stop offset="80%" stop-color="#3155ca" stop-opacity="1"></stop></linearGradient></defs><defs><linearGradient id="grad1_3" x1="33.3%" y1="100%" x2="100%" y2="0%"><stop offset="20%" stop-color="#00489f" stop-opacity="1"></stop><stop offset="80%" stop-color="#003871" stop-opacity="1"></stop></linearGradient></defs><defs><linearGradient id="grad1_4" x1="33.3%" y1="100%" x2="100%" y2="0%"><stop offset="20%" stop-color="#002544" stop-opacity="1"></stop><stop offset="80%" stop-color="#003871" stop-opacity="1"></stop></linearGradient></defs><defs><linearGradient id="grad1_5" x1="33.3%" y1="100%" x2="100%" y2="0%"><stop offset="20%" stop-color="#002544" stop-opacity="1"></stop><stop offset="80%" stop-color="#04121c" stop-opacity="1"></stop></linearGradient></defs><defs><linearGradient id="grad2_0" x1="0%" y1="100%" x2="66.7%" y2="0%"><stop offset="20%" stop-color="#715df2" stop-opacity="1"></stop><stop offset="80%" stop-color="#715df2" stop-opacity="1"></stop></linearGradient></defs><defs><linearGradient id="grad2_1" x1="0%" y1="100%" x2="66.7%" y2="0%"><stop offset="20%" stop-color="#3155ca" stop-opacity="1"></stop><stop offset="80%" stop-color="#715df2" stop-opacity="1"></stop></linearGradient></defs><defs><linearGradient id="grad2_2" x1="0%" y1="100%" x2="66.7%" y2="0%"><stop offset="20%" stop-color="#3155ca" stop-opacity="1"></stop><stop offset="80%" stop-color="#00489f" stop-opacity="1"></stop></linearGradient></defs><defs><linearGradient id="grad2_3" x1="0%" y1="100%" x2="66.7%" y2="0%"><stop offset="20%" stop-color="#003871" stop-opacity="1"></stop><stop offset="80%" stop-color="#00489f" stop-opacity="1"></stop></linearGradient></defs><defs><linearGradient id="grad2_4" x1="0%" y1="100%" x2="66.7%" y2="0%"><stop offset="20%" stop-color="#003871" stop-opacity="1"></stop><stop offset="80%" stop-color="#002544" stop-opacity="1"></stop></linearGradient></defs><defs><linearGradient id="grad2_5" x1="0%" y1="100%" x2="66.7%" y2="0%"><stop offset="20%" stop-color="#04121c" stop-opacity="1"></stop><stop offset="80%" stop-color="#002544" stop-opacity="1"></stop></linearGradient></defs><g transform="translate(900, 600)"><path d="M-351.5 0C-328.7 -27.2 -305.9 -54.4 -287.8 -77.1C-269.8 -99.9 -256.5 -118.2 -252.9 -146C-249.2 -173.8 -255.2 -211.1 -245.4 -245.4C-235.5 -279.6 -209.8 -310.8 -175.8 -304.4C-141.7 -298.1 -99.3 -254.4 -68.6 -256C-37.9 -257.6 -18.9 -304.6 0 -351.5L0 0Z" fill="#001c30"></path><path d="M-293 0C-273.9 -22.7 -254.9 -45.3 -239.9 -64.3C-224.8 -83.2 -213.8 -98.5 -210.7 -121.7C-207.7 -144.8 -212.7 -175.9 -204.5 -204.5C-196.3 -233 -174.9 -259 -146.5 -253.7C-118.1 -248.4 -82.7 -212 -57.2 -213.3C-31.6 -214.6 -15.8 -253.8 0 -293L0 0Z" fill="#002f5a"></path><path d="M-234.4 0C-219.1 -18.1 -203.9 -36.3 -191.9 -51.4C-179.9 -66.6 -171 -78.8 -168.6 -97.3C-166.2 -115.9 -170.1 -140.8 -163.6 -163.6C-157 -186.4 -139.9 -207.2 -117.2 -203C-94.5 -198.8 -66.2 -169.6 -45.7 -170.6C-25.3 -171.7 -12.6 -203 0 -234.4L0 0Z" fill="#004088"></path><path d="M-175.8 0C-164.4 -13.6 -152.9 -27.2 -143.9 -38.6C-134.9 -49.9 -128.3 -59.1 -126.4 -73C-124.6 -86.9 -127.6 -105.6 -122.7 -122.7C-117.8 -139.8 -104.9 -155.4 -87.9 -152.2C-70.9 -149.1 -49.6 -127.2 -34.3 -128C-18.9 -128.8 -9.5 -152.3 0 -175.8L0 0Z" fill="#024fb5"></path><path d="M-117.2 0C-109.6 -9.1 -102 -18.1 -95.9 -25.7C-89.9 -33.3 -85.5 -39.4 -84.3 -48.7C-83.1 -57.9 -85.1 -70.4 -81.8 -81.8C-78.5 -93.2 -69.9 -103.6 -58.6 -101.5C-47.2 -99.4 -33.1 -84.8 -22.9 -85.3C-12.6 -85.9 -6.3 -101.5 0 -117.2L0 0Z" fill="#515adf"></path><path d="M-58.6 0C-54.8 -4.5 -51 -9.1 -48 -12.9C-45 -16.6 -42.8 -19.7 -42.1 -24.3C-41.5 -29 -42.5 -35.2 -40.9 -40.9C-39.3 -46.6 -35 -51.8 -29.3 -50.7C-23.6 -49.7 -16.5 -42.4 -11.4 -42.7C-6.3 -42.9 -3.2 -50.8 0 -58.6L0 0Z" fill="#715df2"></path></g><g transform="translate(0, 0)"><path d="M351.5 0C340.7 29.5 329.9 58.9 309.1 82.8C288.2 106.7 257.3 125 229.5 132.5C201.7 140 176.9 136.6 174.7 174.7C172.4 212.7 192.7 292.3 175.8 304.4C158.8 316.6 104.6 261.3 69.1 257.9C33.6 254.5 16.8 303 0 351.5L0 0Z" fill="#001c30"></path><path d="M293 0C284 24.6 275 49.1 257.6 69C240.2 88.9 214.4 104.2 191.2 110.4C168 116.6 147.4 113.8 145.5 145.5C143.7 177.3 160.6 243.6 146.5 253.7C132.3 263.8 87.2 217.7 57.6 214.9C28 212.1 14 252.5 0 293L0 0Z" fill="#002f5a"></path><path d="M234.4 0C227.2 19.6 220 39.3 206.1 55.2C192.2 71.1 171.6 83.4 153 88.3C134.4 93.3 117.9 91 116.4 116.4C114.9 141.8 128.5 194.9 117.2 203C105.9 211.1 69.7 174.2 46.1 171.9C22.4 169.7 11.2 202 0 234.4L0 0Z" fill="#004088"></path><path d="M175.8 0C170.4 14.7 165 29.5 154.5 41.4C144.1 53.4 128.7 62.5 114.7 66.2C100.8 70 88.4 68.3 87.3 87.3C86.2 106.4 96.4 146.2 87.9 152.2C79.4 158.3 52.3 130.6 34.6 129C16.8 127.3 8.4 151.5 0 175.8L0 0Z" fill="#024fb5"></path><path d="M117.2 0C113.6 9.8 110 19.6 103 27.6C96.1 35.6 85.8 41.7 76.5 44.2C67.2 46.7 59 45.5 58.2 58.2C57.5 70.9 64.2 97.4 58.6 101.5C52.9 105.5 34.9 87.1 23 86C11.2 84.8 5.6 101 0 117.2L0 0Z" fill="#515adf"></path><path d="M58.6 0C56.8 4.9 55 9.8 51.5 13.8C48 17.8 42.9 20.8 38.2 22.1C33.6 23.3 29.5 22.8 29.1 29.1C28.7 35.5 32.1 48.7 29.3 50.7C26.5 52.8 17.4 43.5 11.5 43C5.6 42.4 2.8 50.5 0 58.6L0 0Z" fill="#715df2"></path></g></svg>